HIERARCHY
ROOT Root
{
  OFFSET 0.0 0.0 0.0
  CHANNELS 6 Xposition Yposition Zposition Zrotation Yrotation Xrotation
  JOINT Hips
  {
    OFFSET 0.0 100.0 0.0
    CHANNELS 6 Xposition Yposition Zposition Zrotation Yrotation Xrotation
    JOINT Spine1
    {
      OFFSET 5.003913 -0.037094 -0.013727
      CHANNELS 3 Zrotation Yrotation Xrotation
      JOINT Spine2
      {
        OFFSET 7.125363 -1e-06 0.0
        CHANNELS 3 Zrotation Yrotation Xrotation
        JOINT Chest
        {
          OFFSET 7.594027 1e-06 0.0
          CHANNELS 3 Zrotation Yrotation Xrotation
          JOINT Neck1
          {
            OFFSET 26.313086 -0.460272 -0.181672
            CHANNELS 3 Zrotation Yrotation Xrotation
            JOINT Neck2
            {
              OFFSET 8.045911 0.0 0.0
              CHANNELS 3 Zrotation Yrotation Xrotation
              JOINT Head
              {
                OFFSET 6.432774 0.0 0.0
                CHANNELS 3 Zrotation Yrotation Xrotation
                JOINT HeadEnd
                {
                  OFFSET 16.169773 0.06451 0.00362
                  CHANNELS 3 Zrotation Yrotation Xrotation
                }
                JOINT Jaw
                {
                  OFFSET 0.108741 3.12938 0.002639
                  CHANNELS 3 Zrotation Yrotation Xrotation
                }
                JOINT LeftEye
                {
                  OFFSET 4.45173 8.166359 3.206392
                  CHANNELS 3 Zrotation Yrotation Xrotation
                }
                JOINT RightEye
                {
                  OFFSET 4.436895 8.135758 -3.222429
                  CHANNELS 3 Zrotation Yrotation Xrotation
                }
              }
            }
          }
          JOINT LeftShoulder
          {
            OFFSET 23.218927 5.195579 1.621656
            CHANNELS 3 Zrotation Yrotation Xrotation
            JOINT LeftArm
            {
              OFFSET 15.902118 2e-06 -2e-06
              CHANNELS 3 Zrotation Yrotation Xrotation
              JOINT LeftForeArm
              {
                OFFSET 28.739307 0.0 -1e-06
                CHANNELS 3 Zrotation Yrotation Xrotation
                JOINT LeftHand
                {
                  OFFSET 27.093981 -4e-06 0.0
                  CHANNELS 3 Zrotation Yrotation Xrotation
                  JOINT LeftHandThumb1
                  {
                    OFFSET 2.276781 3.380274 0.83384
                    CHANNELS 3 Zrotation Yrotation Xrotation
                    JOINT LeftHandThumb2
                    {
                      OFFSET 4.705309 -1e-06 -1e-06
                      CHANNELS 3 Zrotation Yrotation Xrotation
                      JOINT LeftHandThumb3
                      {
                        OFFSET 2.798515 0.0 3e-06
                        CHANNELS 3 Zrotation Yrotation Xrotation
                        JOINT LeftHandThumbEnd
                        {
                          OFFSET 3.180793 4e-06 -4e-06
                          CHANNELS 3 Zrotation Yrotation Xrotation
                        }
                      }
                    }
                  }
                  JOINT LeftHandIndex1
                  {
                    OFFSET 3.247786 2.352677 0.137192
                    CHANNELS 3 Zrotation Yrotation Xrotation
                    JOINT LeftHandIndex2
                    {
                      OFFSET 6.367095 1e-06 0.0
                      CHANNELS 3 Zrotation Yrotation Xrotation
                      JOINT LeftHandIndex3
                      {
                        OFFSET 3.662364 0.0 0.0
                        CHANNELS 3 Zrotation Yrotation Xrotation
                        JOINT LeftHandIndex4
                        {
                          OFFSET 2.329242 4e-06 -4e-06
                          CHANNELS 3 Zrotation Yrotation Xrotation
                          JOINT LeftHandIndexEnd
                          {
                            OFFSET 2.767823 1e-06 0.0
                            CHANNELS 3 Zrotation Yrotation Xrotation
                          }
                        }
                      }
                    }
                  }
                  JOINT LeftHandMiddle1
                  {
                    OFFSET 3.163612 0.945023 -0.406112
                    CHANNELS 3 Zrotation Yrotation Xrotation
                    JOINT LeftHandMiddle2
                    {
                      OFFSET 6.276789 3e-06 0.0
                      CHANNELS 3 Zrotation Yrotation Xrotation
                      JOINT LeftHandMiddle3
                      {
                        OFFSET 4.35652 -1e-06 4e-06
                        CHANNELS 3 Zrotation Yrotation Xrotation
                        JOINT LeftHandMiddle4
                        {
                          OFFSET 2.996877 0.0 8e-06
                          CHANNELS 3 Zrotation Yrotation Xrotation
                          JOINT LeftHandMiddleEnd
                          {
                            OFFSET 2.323256 3e-06 -4e-06
                            CHANNELS 3 Zrotation Yrotation Xrotation
                          }
                        }
                      }
                    }
                  }
                  JOINT LeftHandRing1
                  {
                    OFFSET 2.882606 -0.309162 0.107445
                    CHANNELS 3 Zrotation Yrotation Xrotation
                    JOINT LeftHandRing2
                    {
                      OFFSET 6.033198 0.0 4e-06
                      CHANNELS 3 Zrotation Yrotation Xrotation
                      JOINT LeftHandRing3
                      {
                        OFFSET 4.350578 3e-06 0.0
                        CHANNELS 3 Zrotation Yrotation Xrotation
                        JOINT LeftHandRing4
                        {
                          OFFSET 2.651321 2e-06 -7e-06
                          CHANNELS 3 Zrotation Yrotation Xrotation
                          JOINT LeftHandRingEnd
                          {
                            OFFSET 1.937663 1e-06 -4e-06
                            CHANNELS 3 Zrotation Yrotation Xrotation
                          }
                        }
                      }
                    }
                  }
                  JOINT LeftHandPinky1
                  {
                    OFFSET 2.865315 -1.525436 0.575687
                    CHANNELS 3 Zrotation Yrotation Xrotation
                    JOINT LeftHandPinky2
                    {
                      OFFSET 5.54936 1e-06 -8e-06
                      CHANNELS 3 Zrotation Yrotation Xrotation
                      JOINT LeftHandPinky3
                      {
                        OFFSET 3.070974 0.0 -4e-06
                        CHANNELS 3 Zrotation Yrotation Xrotation
                        JOINT LeftHandPinky4
                        {
                          OFFSET 1.549672 1e-06 0.0
                          CHANNELS 3 Zrotation Yrotation Xrotation
                          JOINT LeftHandPinkyEnd
                          {
                            OFFSET 1.952123 0.0 0.0
                            CHANNELS 3 Zrotation Yrotation Xrotation
                          }
                        }
                      }
                    }
                  }
                }
              }
            }
          }
          JOINT RightShoulder
          {
            OFFSET 23.161716 5.296122 -1.380114
            CHANNELS 3 Zrotation Yrotation Xrotation
            JOINT RightArm
            {
              OFFSET -16.027195 -2e-06 1.1e-05
              CHANNELS 3 Zrotation Yrotation Xrotation
              JOINT RightForeArm
              {
                OFFSET -28.736639 4e-06 2e-06
                CHANNELS 3 Zrotation Yrotation Xrotation
                JOINT RightHand
                {
                  OFFSET -27.133619 6e-06 0.0
                  CHANNELS 3 Zrotation Yrotation Xrotation
                  JOINT RightHandThumb1
                  {
                    OFFSET -2.274328 -3.351035 -0.83067
                    CHANNELS 3 Zrotation Yrotation Xrotation
                    JOINT RightHandThumb2
                    {
                      OFFSET -4.703594 -3e-06 2e-06
                      CHANNELS 3 Zrotation Yrotation Xrotation
                      JOINT RightHandThumb3
                      {
                        OFFSET -2.794935 -4e-06 -3e-06
                        CHANNELS 3 Zrotation Yrotation Xrotation
                        JOINT RightHandThumbEnd
                        {
                          OFFSET -3.183852 4e-06 1e-06
                          CHANNELS 3 Zrotation Yrotation Xrotation
                        }
                      }
                    }
                  }
                  JOINT RightHandIndex1
                  {
                    OFFSET -3.253496 -2.33755 -0.127667
                    CHANNELS 3 Zrotation Yrotation Xrotation
                    JOINT RightHandIndex2
                    {
                      OFFSET -6.344434 0.0 0.0
                      CHANNELS 3 Zrotation Yrotation Xrotation
                      JOINT RightHandIndex3
                      {
                        OFFSET -3.654871 0.0 -8e-06
                        CHANNELS 3 Zrotation Yrotation Xrotation
                        JOINT RightHandIndex4
                        {
                          OFFSET -2.327586 -1e-06 0.0
                          CHANNELS 3 Zrotation Yrotation Xrotation
                          JOINT RightHandIndexEnd
                          {
                            OFFSET -2.770001 3e-06 8e-06
                            CHANNELS 3 Zrotation Yrotation Xrotation
                          }
                        }
                      }
                    }
                  }
                  JOINT RightHandMiddle1
                  {
                    OFFSET -3.168223 -0.944764 0.411762
                    CHANNELS 3 Zrotation Yrotation Xrotation
                    JOINT RightHandMiddle2
                    {
                      OFFSET -6.266691 -1e-06 -4e-06
                      CHANNELS 3 Zrotation Yrotation Xrotation
                      JOINT RightHandMiddle3
                      {
                        OFFSET -4.348901 0.0 0.0
                        CHANNELS 3 Zrotation Yrotation Xrotation
                        JOINT RightHandMiddle4
                        {
                          OFFSET -3.00024 2e-06 -4e-06
                          CHANNELS 3 Zrotation Yrotation Xrotation
                          JOINT RightHandMiddleEnd
                          {
                            OFFSET -2.321477 -4e-06 -4e-06
                            CHANNELS 3 Zrotation Yrotation Xrotation
                          }
                        }
                      }
                    }
                  }
                  JOINT RightHandRing1
                  {
                    OFFSET -2.885654 0.293261 -0.119232
                    CHANNELS 3 Zrotation Yrotation Xrotation
                    JOINT RightHandRing2
                    {
                      OFFSET -6.032835 -1e-06 -4e-06
                      CHANNELS 3 Zrotation Yrotation Xrotation
                      JOINT RightHandRing3
                      {
                        OFFSET -4.33881 0.0 -4e-06
                        CHANNELS 3 Zrotation Yrotation Xrotation
                        JOINT RightHandRing4
                        {
                          OFFSET -2.654903 -4e-06 -4e-06
                          CHANNELS 3 Zrotation Yrotation Xrotation
                          JOINT RightHandRingEnd
                          {
                            OFFSET -1.935122 0.0 4e-06
                            CHANNELS 3 Zrotation Yrotation Xrotation
                          }
                        }
                      }
                    }
                  }
                  JOINT RightHandPinky1
                  {
                    OFFSET -2.866241 1.503904 -0.60527
                    CHANNELS 3 Zrotation Yrotation Xrotation
                    JOINT RightHandPinky2
                    {
                      OFFSET -5.553177 -2e-06 0.0
                      CHANNELS 3 Zrotation Yrotation Xrotation
                      JOINT RightHandPinky3
                      {
                        OFFSET -3.062664 -1e-06 -4e-06
                        CHANNELS 3 Zrotation Yrotation Xrotation
                        JOINT RightHandPinky4
                        {
                          OFFSET -1.546529 2e-06 4e-06
                          CHANNELS 3 Zrotation Yrotation Xrotation
                          JOINT RightHandPinkyEnd
                          {
                            OFFSET -1.952341 0.0 -4e-06
                            CHANNELS 3 Zrotation Yrotation Xrotation
                          }
                        }
                      }
                    }
                  }
                }
              }
            }
          }
        }
      }
    }
    JOINT LeftLeg
    {
      OFFSET -8.443107 2.567604 10.043214
      CHANNELS 3 Zrotation Yrotation Xrotation
      JOINT LeftShin
      {
        OFFSET 43.229198 1e-06 -1e-06
        CHANNELS 3 Zrotation Yrotation Xrotation
        JOINT LeftFoot
        {
          OFFSET 42.298611 1e-06 1e-06
          CHANNELS 3 Zrotation Yrotation Xrotation
          JOINT LeftToeBase
          {
            OFFSET 14.165858 1e-06 0.0
            CHANNELS 3 Zrotation Yrotation Xrotation
            JOINT LeftToeEnd
            {
              OFFSET 6.7141 -0.234461 0.0
              CHANNELS 3 Zrotation Yrotation Xrotation
            }
          }
        }
      }
    }
    JOINT RightLeg
    {
      OFFSET -8.303923 2.592729 -10.047278
      CHANNELS 3 Zrotation Yrotation Xrotation
      JOINT RightShin
      {
        OFFSET -43.369682 0.0 1e-06
        CHANNELS 3 Zrotation Yrotation Xrotation
        JOINT RightFoot
        {
          OFFSET -42.260784 4e-06 2e-06
          CHANNELS 3 Zrotation Yrotation Xrotation
          JOINT RightToeBase
          {
            OFFSET -14.222245 -2e-06 -1e-06
            CHANNELS 3 Zrotation Yrotation Xrotation
            JOINT RightToeEnd
            {
              OFFSET -6.660062 0.232574 -2e-06
              CHANNELS 3 Zrotation Yrotation Xrotation
            }
          }
        }
      }
    }
  }
}
MOTION
Frames: 4
Frame Time: 0.03333333333333333
0.0 0.0 0.0 0.0 -0.0 0.0 1.613014 98.876717 5.463042 93.071472 1.87618 89.961159 4.211554 -0.068364 -0.152547 -9.837614 -0.688653 -0.469614 34.164379 -0.456012 -3.578119 63.674789 -7.462183 1.35904 -2.093078 -0.642638 -0.684872 -8.348312 -4.274802 -1.249264 6e-06 -0.0 0.0 -0.192977 0.064105 0.000356 -0.229202 0.227064 0.084698 -0.214483 -0.101354 -0.085468 -144.126205 -82.170296 169.297668 67.429306 -37.944042 -11.468349 28.285492 -0.599128 0.079928 7.008682 10.900025 10.711317 17.636641 -26.322729 52.411182 -19.466665 -14.3956 29.410389 -1e-06 -8.774824 -3e-06 15.651473 -18.603588 6.391708 -0.609776 -1.795654 -3.889327 -4.80709 -11.046811 -2.937848 5e-06 -20.976019 0.0 -5.019971 -25.03356 -4.031882 6e-06 1e-06 1e-06 -10.634537 -5.686971 -3.565588 10.573278 -17.922951 -3.1139 2e-06 -13.821209 1e-06 -0.501778 -31.181505 -4.027015 -11.961923 -59.30497 7.891189 -13.982718 -7.150198 -2.875042 13.772735 -8.401495 -3.218241 0.347734 -34.211555 0.771654 -0.963029 -17.733372 2.621021 -1e-06 1e-06 1e-06 -17.346426 -20.095221 -4.201779 21.757566 -1.638377 3.866428 1e-06 -6.338825 2e-06 -1.697592 -22.591751 -6.194007 -0.0 -3e-06 -1e-06 -13.982018 -85.699844 -140.203903 67.001778 -37.857128 -16.608463 30.257298 -0.17835 0.097955 0.199425 4.209565 15.420565 22.182121 -20.375891 49.933311 -16.701818 -16.74353 28.476536 -3e-06 -12.690603 -1e-06 16.459486 -18.066399 2.609948 -0.10592 -1.513856 -4.275882 -5.039041 -5.612872 -2.953554 5e-06 -11.020525 -3e-06 -6.111298 -15.895334 -3.840471 -0.0 -1e-06 -1e-06 -10.283373 -5.680289 -4.341838 11.028297 -11.302405 -2.372636 -1.384269 -14.238582 -6.320122 -0.625436 -26.924192 -3.827604 -4.681711 -50.55555 -3.914958 -13.708527 -7.363477 -3.720941 18.141151 -14.05274 -3.242674 1e-05 -18.787271 -4e-06 -0.429712 -8.456043 2.555503 -0.0 0.0 -0.0 -15.923539 -20.094486 -5.473585 30.419218 -7.190827 1.735928 4e-06 -8.162929 -2e-06 -1.861901 -22.861473 -6.167944 -2e-06 -3e-06 -1e-06 176.624725 0.034338 -3.235978 19.23238 -0.043784 -0.057706 -82.692619 -3.769645 -6.396778 -6.997754 1.530041 2.105561 -0.999998 -0.0 -0.0 -4.543366 -9.732656 -3.117275 23.506079 -0.092898 0.270935 -86.061211 3.611561 -6.809476 -6.682466 0.832511 1.65944 -1.000001 -0.0 0.0 
0.0 0.0 0.0 0.0 -0.0 0.0 1.950413 99.161972 5.71753 92.855927 1.342554 89.824333 4.193378 -0.033106 -0.246295 -9.875867 -0.619088 -0.473828 33.881447 -0.221335 -3.413342 63.643288 -7.463686 1.334187 -2.078969 -0.502632 -0.430517 -8.260217 -4.175495 -1.252851 6e-06 -0.0 0.0 -0.204033 0.027453 0.006876 -0.215418 0.192774 0.103337 -0.192834 -0.138554 -0.091252 -141.457092 -82.354889 166.529205 67.393288 -38.653648 -11.350039 28.569309 -0.720235 -0.013225 6.841329 9.936201 11.151912 17.636625 -26.322725 52.411182 -19.466661 -14.395597 29.410389 -1e-06 -8.774821 -2e-06 15.653093 -18.528809 6.337452 -0.609776 -1.795654 -3.889326 -4.807087 -11.046809 -2.93785 4e-06 -20.976015 -0.0 -5.019969 -25.033556 -4.031881 6e-06 -1e-06 -0.0 -10.634533 -5.686971 -3.565586 10.573275 -17.922947 -3.113901 3e-06 -13.821206 -1e-06 -0.501776 -31.181505 -4.027016 -11.757273 -59.200748 7.701586 -13.982712 -7.150198 -2.875041 13.77273 -8.401491 -3.218242 0.347734 -34.211544 0.771652 -0.963029 -17.73337 2.621019 -0.0 1e-06 -0.0 -17.346416 -20.095213 -4.201779 21.757557 -1.638376 3.866427 1e-06 -6.338822 1e-06 -1.697591 -22.59174 -6.194004 1e-06 -5e-06 -2e-06 -13.276135 -85.549706 -140.943176 66.320274 -38.547806 -15.601532 30.018747 -0.21237 0.120724 0.004039 3.878211 14.737884 22.182112 -20.375891 49.933311 -16.701811 -16.743528 28.47653 -3e-06 -12.690599 -0.0 16.393261 -17.91898 2.623012 -0.105919 -1.513855 -4.275884 -5.03904 -5.61287 -2.953557 5e-06 -11.020521 -5e-06 -6.111296 -15.895329 -3.840469 -0.0 0.0 -2e-06 -10.283367 -5.680287 -4.341839 11.028292 -11.302404 -2.372632 -1.38427 -14.238578 -6.32012 -0.625437 -26.924185 -3.827601 -4.584748 -50.485962 -3.875717 -13.70852 -7.363475 -3.72094 18.141144 -14.052737 -3.242672 8e-06 -18.787266 -3e-06 -0.429712 -8.456045 2.555502 1e-06 0.0 -0.0 -15.923531 -20.094481 -5.473588 30.419205 -7.190825 1.735928 4e-06 -8.162922 -0.0 -1.861901 -22.861465 -6.167942 1e-06 -5e-06 0.0 177.122101 0.113353 -3.088575 17.393061 -0.034857 -0.023564 -81.900566 -4.052661 -6.500426 -7.000597 1.494684 2.090219 -0.999998 0.0 0.0 -3.849113 -9.670501 -3.387149 21.178656 -0.080028 0.237853 -84.941269 3.706732 -6.930857 -6.855194 0.795961 1.656424 -1.000002 -0.0 -0.0 
0.0 0.0 0.0 0.0 -0.0 0.0 2.178787 99.298546 5.901562 92.706741 0.989402 89.645836 4.213161 -0.043326 -0.256201 -9.871784 -0.593283 -0.53659 33.77766 -0.005755 -3.24213 63.517086 -7.411969 1.320511 -2.103626 -0.44031 -0.281135 -8.369168 -4.218363 -1.193882 7e-06 -0.0 0.0 -0.198894 0.026061 0.011799 -0.245427 0.194342 0.097376 -0.223677 -0.141293 -0.077772 -139.936279 -82.543465 164.975296 67.180649 -39.024841 -11.011433 28.987631 -0.705831 -0.061963 6.593872 8.996014 11.309611 17.636631 -26.322729 52.411186 -19.466665 -14.395598 29.410389 -0.0 -8.774822 -1e-06 15.703406 -18.539799 6.325226 -0.609777 -1.795654 -3.889326 -4.80709 -11.046811 -2.937849 3e-06 -20.976017 -0.0 -5.019973 -25.03356 -4.031882 6e-06 1e-06 0.0 -10.634535 -5.686972 -3.565589 10.573275 -17.922951 -3.113901 1e-06 -13.82121 1e-06 -0.501779 -31.181505 -4.027015 -11.756029 -59.169125 7.619089 -13.982713 -7.150198 -2.875041 13.77273 -8.401491 -3.218241 0.347732 -34.211544 0.771653 -0.963029 -17.73337 2.621019 -1e-06 2e-06 -0.0 -17.346422 -20.095219 -4.201779 21.757563 -1.638374 3.866428 0.0 -6.338824 1e-06 -1.69759 -22.591747 -6.194008 1e-06 -4e-06 -4e-06 -13.781409 -85.359238 -140.428207 65.634064 -38.980667 -15.018485 29.818516 -0.279221 0.138194 -0.116928 3.752941 14.23375 22.182112 -20.375887 49.933304 -16.701807 -16.743521 28.476519 -2e-06 -12.690598 -0.0 16.341377 -17.849642 2.6206 -0.10592 -1.513855 -4.275879 -5.03904 -5.612871 -2.953556 4e-06 -11.02052 -3e-06 -6.111297 -15.89533 -3.84047 1e-06 -2e-06 -1e-06 -10.283367 -5.680287 -4.341835 11.028287 -11.302402 -2.372629 -1.384268 -14.238577 -6.320121 -0.625438 -26.924187 -3.827605 -4.473732 -50.414577 -3.921337 -13.70852 -7.363476 -3.720938 18.141142 -14.052735 -3.242673 7e-06 -18.787266 -6e-06 -0.42971 -8.456042 2.555502 1e-06 0.0 -0.0 -15.923532 -20.094482 -5.473582 30.419197 -7.190823 1.735928 3e-06 -8.162924 -1e-06 -1.861899 -22.861467 -6.167942 -2e-06 -5e-06 -2e-06 177.177643 0.135882 -3.06733 16.779625 -0.031508 -0.008811 -81.592628 -4.173292 -6.532897 -6.948488 1.469437 2.089814 -0.999999 -0.0 -0.0 -3.505972 -9.690812 -3.594986 19.877522 -0.065606 0.206001 -84.29554 3.914563 -7.175113 -6.868963 0.770911 1.653721 -1.000002 -0.0 0.0 
0.0 0.0 0.0 0.0 -0.0 0.0 2.325057 99.335228 6.02816 92.612343 0.820419 89.416649 4.256565 -0.06404 -0.245043 -9.869781 -0.585549 -0.562593 33.78252 0.12446 -3.106739 63.393322 -7.348979 1.312553 -2.114025 -0.432997 -0.216763 -8.574629 -4.308659 -1.089129 6e-06 -1e-06 0.0 -0.187646 0.028337 0.013755 -0.281599 0.200022 0.081569 -0.270642 -0.140939 -0.060356 -139.268265 -82.620491 164.361176 66.870491 -39.047615 -10.467861 29.194885 -0.678984 -0.066991 6.379573 8.455837 11.634726 17.636627 -26.322725 52.411182 -19.466661 -14.395596 29.410381 -0.0 -8.774821 -1e-06 15.7491 -18.517534 6.314589 -0.609776 -1.795652 -3.889326 -4.807088 -11.046812 -2.937848 4e-06 -20.976017 -0.0 -5.019972 -25.03356 -4.031882 6e-06 3e-06 1e-06 -10.634531 -5.686969 -3.565587 10.573275 -17.922947 -3.113901 3e-06 -13.821205 2e-06 -0.501779 -31.181505 -4.027016 -11.755723 -59.178413 7.579345 -13.982712 -7.150198 -2.87504 13.77273 -8.401492 -3.218242 0.347734 -34.211544 0.771653 -0.963028 -17.73337 2.621018 -0.0 1e-06 -0.0 -17.346418 -20.095217 -4.20178 21.757557 -1.638374 3.866427 1e-06 -6.338823 1e-06 -1.697593 -22.591743 -6.194005 2e-06 -4e-06 -3e-06 -13.498436 -85.196579 -140.707779 65.139389 -39.226784 -14.315339 29.516403 -0.322706 0.166095 -0.15428 3.746753 13.971637 22.182114 -20.375895 49.933327 -16.701817 -16.743528 28.476536 -3e-06 -12.690601 1e-06 16.30089 -17.795961 2.623593 -0.105919 -1.513856 -4.275882 -5.039041 -5.612871 -2.953555 5e-06 -11.020525 -5e-06 -6.111296 -15.895334 -3.840472 -0.0 0.0 -0.0 -10.283369 -5.680288 -4.34184 11.028294 -11.302404 -2.372632 -1.384269 -14.23858 -6.320123 -0.625436 -26.924194 -3.827603 -4.430771 -50.346119 -3.905919 -13.708524 -7.363477 -3.720941 18.141148 -14.052739 -3.242676 9e-06 -18.78727 -3e-06 -0.429714 -8.456045 2.555503 1e-06 2e-06 -0.0 -15.923534 -20.094486 -5.473588 30.419214 -7.190826 1.735924 2e-06 -8.162926 -0.0 -1.861898 -22.861473 -6.167946 -2e-06 -5e-06 -1e-06 177.215942 0.134833 -3.195502 16.549732 -0.03279 -0.006158 -81.612877 -4.234582 -6.556036 -6.869359 1.469087 2.092911 -0.999999 -0.0 0.0 -3.465645 -9.677402 -3.733623 19.387634 -0.063293 0.185963 -84.064583 4.121015 -7.345265 -6.869545 0.750605 1.648277 -1.000002 0.0 -0.0 
